<svg width="459" height="783" viewBox="0 0 459 783" fill="none" xmlns="http://www.w3.org/2000/svg">
<g id="designer 1" clip-path="url(#clip0)">
<g id="pen">
<path id="Vector" d="M245.882 401.346L250.892 405.064L193.947 493.101L182.761 498.933L245.882 401.346Z" fill="#002E4E" stroke="#002E4E" stroke-width="1.12412" stroke-miterlimit="10"/>
</g>
<path id="Vector_2" d="M0 381.559L197.236 139.002L217.293 152.818L22.229 398.446L0 381.559Z" fill="#C5CAE9"/>
<path id="Vector_3" d="M139.157 251.209L160.463 264.374L122.019 310.174L102.621 297.215L139.157 251.209Z" fill="#1A237E"/>
<path id="Vector_4" d="M146.766 280.691L213.672 390.192L187.485 391.793L131.72 296.226L146.766 280.691Z" fill="#1A237E"/>
<path id="Vector_5" d="M257.409 389.235H61.5665V398.446H257.409V389.235Z" fill="#1A237E"/>
<path id="Vector_6" d="M96.6966 407.476H72.1815V726.088H96.6966V407.476Z" fill="#1A237E"/>
<path id="Vector_7" d="M300.061 407.476H277.217V726.088H300.061V407.476Z" fill="#1A237E"/>
<path id="Vector_8" d="M366.92 396.538H13.6215V415.472H366.92V396.538Z" fill="#536DFE"/>
<path id="Vector_9" d="M319.537 133.124C345.499 133.124 366.546 111.685 366.546 85.2379C366.546 58.7912 345.499 37.3519 319.537 37.3519C293.574 37.3519 272.527 58.7912 272.527 85.2379C272.527 111.685 293.574 133.124 319.537 133.124Z" fill="#FF6584"/>
<path id="Vector_10" d="M349.278 176.017C347.48 175.234 345.472 175.077 343.574 175.57C341.675 176.063 339.998 177.178 338.808 178.738C334.633 184.047 328.936 195.698 331.123 218.552L339.594 307.065L340.942 396.285C340.942 396.285 353.684 437.42 372.341 437.032C390.998 436.644 356.889 397.631 356.889 397.631C356.889 397.631 361.619 326.85 359.675 306.535C357.863 287.598 375.803 187.77 349.278 176.017Z" fill="#FFB8B8"/>
<path id="Vector_11" d="M326.275 135.521L315.58 165.047L330.869 169.858L333.016 212.705L295.109 191.906L276.016 170.477L273.634 154.032C273.634 154.032 288.357 151.431 293.71 118.314L326.275 135.521Z" fill="#FFB8B8"/>
<path id="Vector_12" d="M398.047 382.203C398.047 382.203 464.929 450.605 447.695 486.672C430.461 522.739 346.353 648.995 346.353 648.995L323.853 619.805C323.853 619.805 345.969 603.426 356.269 565.041C366.57 526.656 389.883 500.145 396.763 490.709C403.644 481.273 332.158 415.243 338.472 398.396C344.787 381.549 398.047 382.203 398.047 382.203Z" fill="#FFB8B8"/>
<path id="Vector_13" opacity="0.1" d="M398.047 382.203C398.047 382.203 464.929 450.605 447.695 486.672C430.461 522.739 346.353 648.995 346.353 648.995L323.853 619.805C323.853 619.805 345.969 603.426 356.269 565.041C366.57 526.656 389.883 500.145 396.763 490.709C403.644 481.273 332.158 415.243 338.472 398.396C344.787 381.549 398.047 382.203 398.047 382.203Z" fill="black"/>
<path id="Vector_14" d="M356.023 628.154C356.023 628.154 363.01 642.226 360.905 647.842C358.8 653.457 347.763 685.878 347.763 685.878C347.763 685.878 359.515 732.84 350.989 731.795C342.463 730.75 311.608 699.068 312.975 687.489L316.908 654.197L307.356 661.837L295.198 642.725L312.143 621.307C312.143 621.307 330.339 601.511 336.022 602.208C341.706 602.904 356.023 628.154 356.023 628.154Z" fill="#2F2E41"/>
<path id="Vector_15" d="M342.735 398.918L347.222 409.747L366.068 494.289C366.068 494.289 373.568 504.019 371.228 536.038C368.887 568.056 409.036 691.92 409.036 691.92L410.393 717.049L386.236 714.089L369.762 682.701C369.762 682.701 363.576 649.637 345.51 619.523C327.443 589.409 327.466 515.99 327.466 515.99L278.844 402.835L317.104 384.03L342.735 398.918Z" fill="#FFB8B8"/>
<path id="Vector_16" d="M400.799 676.226C400.799 676.226 408.075 675.649 409.154 678.718C410.233 681.787 431.985 741.722 431.985 741.722C431.985 741.722 473.353 782.034 453.118 782.491C432.882 782.948 398.949 777.321 393.212 764.87C387.475 752.42 380.83 735.452 380.83 735.452L378.778 752.822L362.752 742.047C362.752 742.047 353.789 683.68 364.249 680.557C374.709 677.433 400.799 676.226 400.799 676.226Z" fill="#2F2E41"/>
<path id="Vector_17" d="M376.402 345.776C376.402 345.776 393.336 361.067 391.744 362.34C390.152 363.614 401.349 366.454 399.244 372.07C397.139 377.686 408.731 389.386 403.047 388.689C397.363 387.992 375.311 379.416 350.919 402.858L346.656 402.336L347.222 409.747C347.222 409.747 329.551 388.492 283.897 421.076C283.897 421.076 268.78 414.818 270.884 409.202C272.989 403.586 246.333 397.382 260.725 360.967C275.117 324.552 319.68 325.608 319.68 325.608L376.402 345.776Z" fill="#2F2E41"/>
<path id="Vector_18" d="M284.66 158.321C284.66 158.321 277.331 147.143 272.897 148.068C268.463 148.993 244.22 148.435 240.353 156.772C236.485 165.108 254.903 251.59 251.944 264.443C248.984 277.296 233.266 373.755 246.792 381.286C260.318 388.817 276.131 352.576 276.131 352.576C276.131 352.576 318.654 334.293 354.745 346.059C390.836 357.824 379.757 341.782 379.757 341.782C379.757 341.782 353.901 316.587 357.834 283.295C361.766 250.003 363.529 247.282 356.884 230.315C356.884 230.315 355.698 203.738 356.553 196.5C357.408 189.263 362.697 181.101 358.776 177.683C354.855 174.266 314.159 164.873 314.159 164.873C314.159 164.873 334.79 173.275 325.409 179.467C316.028 185.66 284.66 158.321 284.66 158.321Z" fill="#3F3D56"/>
<path id="Vector_19" d="M320.827 143.411C339.797 143.411 355.176 127.746 355.176 108.421C355.176 89.0968 339.797 73.4312 320.827 73.4312C301.856 73.4312 286.477 89.0968 286.477 108.421C286.477 127.746 301.856 143.411 320.827 143.411Z" fill="#FFB8B8"/>
<path id="Vector_20" d="M248.625 152.72C250.441 151.979 252.453 151.867 254.34 152.404C256.226 152.941 257.879 154.094 259.032 155.68C263.089 161.084 268.527 172.863 265.834 195.661L255.405 283.957L252.081 373.124C252.081 373.124 254.228 415.971 235.584 415.155C216.94 414.338 236.108 374.103 236.108 374.103C236.108 374.103 232.947 303.231 235.34 282.966C237.572 264.075 221.847 163.86 248.625 152.72Z" fill="#FFB8B8"/>
<path id="Vector_21" d="M294.999 0C298.523 5.1407 303.79 8.82959 309.826 10.3829C320.194 13.211 309.911 29.082 309.911 29.082C309.911 29.082 313.65 23.3107 308.257 17.1988C302.863 11.0869 294.183 6.90827 294.999 0Z" fill="#FF6584"/>
<path id="Vector_22" d="M311.748 46.2345C318.984 46.2345 324.849 40.2596 324.849 32.8892C324.849 25.5188 318.984 19.5439 311.748 19.5439C304.513 19.5439 298.647 25.5188 298.647 32.8892C298.647 40.2596 304.513 46.2345 311.748 46.2345Z" fill="#FF6584"/>
<path id="Vector_23" d="M295.022 44.0748C305.702 39.9598 323.485 37.8734 332.634 39.2996L331.38 29.9666C322.584 34.5972 304.882 36.7734 293.767 34.7417L295.022 44.0748Z" fill="#3F3D56"/>
<path id="Vector_24" d="M315.688 47.4155C315.688 47.4155 329.073 70.0947 360.198 78.5847C391.323 87.0746 360.452 134.719 360.452 134.719C360.452 134.719 371.678 117.394 355.486 99.0459C339.295 80.698 313.238 68.154 315.688 47.4155Z" fill="#FF6584"/>
<path id="Vector_25" d="M314.625 46.0374C314.625 46.0374 301.767 77.1883 287.65 80.1334C273.533 83.0785 274.603 132.3 296.68 139.681C296.68 139.681 280.582 110.825 294.342 91.473C308.102 72.1208 316.794 56.8225 314.625 46.0374Z" fill="#FF6584"/>
</g>
<defs>
<clipPath id="clip0">
<rect width="458.692" height="782.517" fill="white"/>
</clipPath>
</defs>
</svg>
