<svg width="1220" height="850" viewBox="0 0 1220 850" fill="none" xmlns="http://www.w3.org/2000/svg">
<g id="Frame 1">
<g id="Designer" clip-path="url(#clip0)">
<g id="pen">
<path id="Vector" d="M584.543 468.594L589.403 472.314L534.158 560.405L523.306 566.241L584.543 468.594Z" fill="#002E4E" stroke="#002E4E" stroke-width="1.12412" stroke-miterlimit="10"/>
</g>
<path id="Vector_2" d="M346 448.795L537.349 206.088L556.807 219.912L367.565 465.692L346 448.795Z" fill="#C5CAE9"/>
<path id="Vector_3" d="M481.003 318.364L501.673 331.537L464.377 377.366L445.558 364.399L481.003 318.364Z" fill="#1A237E"/>
<path id="Vector_4" d="M488.385 347.864L553.294 457.433L527.889 459.035L473.788 363.409L488.385 347.864Z" fill="#1A237E"/>
<path id="Vector_5" d="M595.726 456.475H405.729V465.692H595.726V456.475Z" fill="#1A237E"/>
<path id="Vector_6" d="M637.104 474.728H614.942V793.537H637.104V474.728Z" fill="#1A237E"/>
<path id="Vector_7" d="M439.81 474.728H416.027V793.537H439.81V474.728Z" fill="#1A237E"/>
<path id="Vector_8" d="M701.968 463.783H359.215V482.729H701.968V463.783Z" fill="#536DFE"/>
<path id="Vector_9" d="M655.999 200.206C681.186 200.206 701.605 178.754 701.605 152.291C701.605 125.827 681.186 104.375 655.999 104.375C630.811 104.375 610.392 125.827 610.392 152.291C610.392 178.754 630.811 200.206 655.999 200.206Z" fill="#FF6584"/>
<path id="Vector_10" d="M684.852 243.126C683.108 242.342 681.159 242.185 679.318 242.678C677.477 243.172 675.849 244.288 674.695 245.848C670.644 251.161 665.117 262.819 667.239 285.687L675.457 374.255L676.765 463.53C676.765 463.53 689.127 504.69 707.227 504.302C725.327 503.914 692.236 464.877 692.236 464.877C692.236 464.877 696.825 394.052 694.939 373.725C693.181 354.775 710.586 254.885 684.852 243.126Z" fill="#FFB8B8"/>
<path id="Vector_11" d="M662.536 202.604L652.16 232.149L666.992 236.962L669.075 279.836L632.3 259.025L613.777 237.582L611.466 221.127C611.466 221.127 625.75 218.525 630.943 185.387L662.536 202.604Z" fill="#FFB8B8"/>
<path id="Vector_12" d="M732.166 449.439C732.166 449.439 797.051 517.883 780.331 553.973C763.611 590.062 682.015 716.396 682.015 716.396L660.186 687.188C660.186 687.188 681.642 670.799 691.635 632.39C701.628 593.981 724.245 567.454 730.92 558.012C737.596 548.571 668.243 482.5 674.369 465.642C680.495 448.784 732.166 449.439 732.166 449.439Z" fill="#FFB8B8"/>
<path id="Vector_13" opacity="0.1" d="M732.166 449.439C732.166 449.439 797.051 517.883 780.331 553.973C763.611 590.062 682.015 716.396 682.015 716.396L660.186 687.188C660.186 687.188 681.642 670.799 691.635 632.39C701.628 593.981 724.245 567.454 730.92 558.012C737.596 548.571 668.243 482.5 674.369 465.642C680.495 448.784 732.166 449.439 732.166 449.439Z" fill="black"/>
<path id="Vector_14" d="M691.396 695.541C691.396 695.541 698.174 709.622 696.132 715.242C694.09 720.861 683.382 753.302 683.382 753.302C683.382 753.302 694.783 800.293 686.512 799.247C678.241 798.201 648.306 766.5 649.633 754.913L653.448 721.601L644.182 729.245L632.386 710.122L648.826 688.691C648.826 688.691 666.478 668.882 671.992 669.579C677.507 670.276 691.396 695.541 691.396 695.541Z" fill="#2F2E41"/>
<path id="Vector_15" d="M678.505 466.165L682.858 477L701.141 561.594C701.141 561.594 708.417 571.33 706.147 603.369C703.876 635.407 742.827 759.347 742.827 759.347L744.143 784.492L720.707 781.53L704.724 750.122C704.724 750.122 698.723 717.038 681.196 686.905C663.669 656.772 663.691 583.308 663.691 583.308L616.521 470.084L653.639 451.267L678.505 466.165Z" fill="#FFB8B8"/>
<path id="Vector_16" d="M734.835 743.643C734.835 743.643 741.894 743.066 742.941 746.137C743.988 749.208 765.09 809.18 765.09 809.18C765.09 809.18 805.224 849.517 785.592 849.974C765.961 850.431 733.041 844.801 727.475 832.342C721.909 819.884 715.462 802.907 715.462 802.907L713.472 820.287L697.924 809.506C697.924 809.506 689.228 751.102 699.376 747.977C709.524 744.852 734.835 743.643 734.835 743.643Z" fill="#2F2E41"/>
<path id="Vector_17" d="M711.166 412.989C711.166 412.989 727.595 428.29 726.05 429.564C724.506 430.838 735.369 433.681 733.327 439.3C731.285 444.919 742.531 456.626 737.016 455.929C731.502 455.232 710.109 446.65 686.444 470.107L682.309 469.584L682.858 477C682.858 477 665.714 455.732 621.423 488.336C621.423 488.336 606.757 482.074 608.799 476.455C610.841 470.835 584.98 464.628 598.942 428.19C612.904 391.752 656.138 392.809 656.138 392.809L711.166 412.989Z" fill="#2F2E41"/>
<path id="Vector_18" d="M622.163 225.418C622.163 225.418 615.053 214.234 610.751 215.16C606.45 216.085 582.931 215.527 579.178 223.869C575.426 232.21 593.295 318.745 590.423 331.606C587.552 344.467 572.303 440.985 585.425 448.521C598.548 456.058 613.889 419.794 613.889 419.794C613.889 419.794 655.142 401.499 690.156 413.272C725.169 425.045 714.421 408.993 714.421 408.993C714.421 408.993 689.338 383.782 693.152 350.47C696.967 317.157 698.678 314.435 692.231 297.457C692.231 297.457 691.081 270.864 691.91 263.622C692.739 256.38 697.87 248.212 694.066 244.793C690.262 241.373 650.781 231.975 650.781 231.975C650.781 231.975 670.796 240.382 661.696 246.578C652.595 252.775 622.163 225.418 622.163 225.418Z" fill="#3F3D56"/>
<path id="Vector_19" d="M657.25 210.5C675.655 210.5 690.574 194.824 690.574 175.488C690.574 156.152 675.655 140.477 657.25 140.477C638.846 140.477 623.926 156.152 623.926 175.488C623.926 194.824 638.846 210.5 657.25 210.5Z" fill="#FFB8B8"/>
<path id="Vector_20" d="M587.204 219.814C588.966 219.072 590.918 218.961 592.748 219.498C594.578 220.035 596.181 221.189 597.3 222.777C601.236 228.184 606.512 239.97 603.899 262.782L593.781 351.132L590.557 440.354C590.557 440.354 592.639 483.228 574.552 482.411C556.465 481.594 575.06 441.334 575.06 441.334C575.06 441.334 571.993 370.418 574.316 350.141C576.48 331.238 561.225 230.961 587.204 219.814Z" fill="#FFB8B8"/>
<path id="Vector_21" d="M632.193 67C635.612 72.1439 640.722 75.835 646.578 77.3893C656.637 80.2191 646.66 96.0999 646.66 96.0999C646.66 96.0999 650.288 90.3251 645.055 84.2094C639.822 78.0937 631.402 73.9125 632.193 67Z" fill="#FF6584"/>
<path id="Vector_22" d="M648.443 113.263C655.462 113.263 661.153 107.284 661.153 99.9095C661.153 92.5346 655.462 86.556 648.443 86.556C641.423 86.556 635.733 92.5346 635.733 99.9095C635.733 107.284 641.423 113.263 648.443 113.263Z" fill="#FF6584"/>
<path id="Vector_23" d="M632.215 111.102C642.577 106.985 659.829 104.897 668.705 106.324L667.488 96.985C658.955 101.619 641.781 103.796 630.998 101.763L632.215 111.102Z" fill="#3F3D56"/>
<path id="Vector_24" d="M652.265 114.445C652.265 114.445 665.25 137.138 695.446 145.633C725.642 154.128 695.693 201.802 695.693 201.802C695.693 201.802 706.584 184.466 690.875 166.107C675.167 147.748 649.888 135.196 652.265 114.445Z" fill="#FF6584"/>
<path id="Vector_25" d="M651.234 113.066C651.234 113.066 638.759 144.236 625.063 147.183C611.368 150.13 612.407 199.382 633.824 206.767C633.824 206.767 618.207 177.894 631.556 158.529C644.906 139.165 653.338 123.858 651.234 113.066Z" fill="#FF6584"/>
<path id="Polygon 1" d="M761.051 152.986L772.838 125.961L790.246 148.876L761.051 152.986Z" fill="white"/>
</g>
<g id="Textbox">
<rect x="768" y="53" width="447" height="101" rx="12" fill="white"/>
<g id="Rectangle 1" style="mix-blend-mode:lighten">
<path d="M777.5 53.5H1214.5V146.5H777.5V53.5Z" fill="white"/>
<path d="M777.5 53.5H1214.5V146.5H777.5V53.5Z" stroke="white"/>
</g>
<path id="What color should i pick" d="M836.261 86L829.301 107H825.161L819.971 91.46L814.691 107H810.521L803.561 86H807.611L812.831 101.96L818.261 86H821.861L827.171 102.05L832.541 86H836.261ZM848.608 90.8C850.628 90.8 852.248 91.39 853.468 92.57C854.688 93.75 855.298 95.5 855.298 97.82V107H851.548V98.3C851.548 96.9 851.218 95.85 850.558 95.15C849.898 94.43 848.958 94.07 847.738 94.07C846.358 94.07 845.268 94.49 844.468 95.33C843.668 96.15 843.268 97.34 843.268 98.9V107H839.518V84.74H843.268V92.84C843.888 92.18 844.648 91.68 845.548 91.34C846.468 90.98 847.488 90.8 848.608 90.8ZM866.175 90.8C868.535 90.8 870.335 91.37 871.575 92.51C872.835 93.63 873.465 95.33 873.465 97.61V107H869.925V105.05C869.465 105.75 868.805 106.29 867.945 106.67C867.105 107.03 866.085 107.21 864.885 107.21C863.685 107.21 862.635 107.01 861.735 106.61C860.835 106.19 860.135 105.62 859.635 104.9C859.155 104.16 858.915 103.33 858.915 102.41C858.915 100.97 859.445 99.82 860.505 98.96C861.585 98.08 863.275 97.64 865.575 97.64H869.715V97.4C869.715 96.28 869.375 95.42 868.695 94.82C868.035 94.22 867.045 93.92 865.725 93.92C864.825 93.92 863.935 94.06 863.055 94.34C862.195 94.62 861.465 95.01 860.865 95.51L859.395 92.78C860.235 92.14 861.245 91.65 862.425 91.31C863.605 90.97 864.855 90.8 866.175 90.8ZM865.665 104.48C866.605 104.48 867.435 104.27 868.155 103.85C868.895 103.41 869.415 102.79 869.715 101.99V100.13H865.845C863.685 100.13 862.605 100.84 862.605 102.26C862.605 102.94 862.875 103.48 863.415 103.88C863.955 104.28 864.705 104.48 865.665 104.48ZM887.907 106.13C887.467 106.49 886.927 106.76 886.287 106.94C885.667 107.12 885.007 107.21 884.307 107.21C882.547 107.21 881.187 106.75 880.227 105.83C879.267 104.91 878.787 103.57 878.787 101.81V94.1H876.147V91.1H878.787V87.44H882.537V91.1H886.827V94.1H882.537V101.72C882.537 102.5 882.727 103.1 883.107 103.52C883.487 103.92 884.037 104.12 884.757 104.12C885.597 104.12 886.297 103.9 886.857 103.46L887.907 106.13ZM906.633 107.21C904.973 107.21 903.483 106.86 902.163 106.16C900.843 105.46 899.813 104.49 899.073 103.25C898.333 101.99 897.963 100.57 897.963 98.99C897.963 97.41 898.333 96 899.073 94.76C899.813 93.52 900.833 92.55 902.133 91.85C903.453 91.15 904.953 90.8 906.633 90.8C908.213 90.8 909.593 91.12 910.773 91.76C911.973 92.4 912.873 93.32 913.473 94.52L910.593 96.2C910.133 95.46 909.553 94.91 908.853 94.55C908.173 94.17 907.423 93.98 906.603 93.98C905.203 93.98 904.043 94.44 903.123 95.36C902.203 96.26 901.743 97.47 901.743 98.99C901.743 100.51 902.193 101.73 903.093 102.65C904.013 103.55 905.183 104 906.603 104C907.423 104 908.173 103.82 908.853 103.46C909.553 103.08 910.133 102.52 910.593 101.78L913.473 103.46C912.853 104.66 911.943 105.59 910.743 106.25C909.563 106.89 908.193 107.21 906.633 107.21ZM923.681 107.21C922.061 107.21 920.601 106.86 919.301 106.16C918.001 105.46 916.981 104.49 916.241 103.25C915.521 101.99 915.161 100.57 915.161 98.99C915.161 97.41 915.521 96 916.241 94.76C916.981 93.52 918.001 92.55 919.301 91.85C920.601 91.15 922.061 90.8 923.681 90.8C925.321 90.8 926.791 91.15 928.091 91.85C929.391 92.55 930.401 93.52 931.121 94.76C931.861 96 932.231 97.41 932.231 98.99C932.231 100.57 931.861 101.99 931.121 103.25C930.401 104.49 929.391 105.46 928.091 106.16C926.791 106.86 925.321 107.21 923.681 107.21ZM923.681 104C925.061 104 926.201 103.54 927.101 102.62C928.001 101.7 928.451 100.49 928.451 98.99C928.451 97.49 928.001 96.28 927.101 95.36C926.201 94.44 925.061 93.98 923.681 93.98C922.301 93.98 921.161 94.44 920.261 95.36C919.381 96.28 918.941 97.49 918.941 98.99C918.941 100.49 919.381 101.7 920.261 102.62C921.161 103.54 922.301 104 923.681 104ZM935.816 84.74H939.566V107H935.816V84.74ZM951.688 107.21C950.068 107.21 948.608 106.86 947.308 106.16C946.008 105.46 944.988 104.49 944.248 103.25C943.528 101.99 943.168 100.57 943.168 98.99C943.168 97.41 943.528 96 944.248 94.76C944.988 93.52 946.008 92.55 947.308 91.85C948.608 91.15 950.068 90.8 951.688 90.8C953.328 90.8 954.798 91.15 956.098 91.85C957.398 92.55 958.408 93.52 959.128 94.76C959.868 96 960.238 97.41 960.238 98.99C960.238 100.57 959.868 101.99 959.128 103.25C958.408 104.49 957.398 105.46 956.098 106.16C954.798 106.86 953.328 107.21 951.688 107.21ZM951.688 104C953.068 104 954.208 103.54 955.108 102.62C956.008 101.7 956.458 100.49 956.458 98.99C956.458 97.49 956.008 96.28 955.108 95.36C954.208 94.44 953.068 93.98 951.688 93.98C950.308 93.98 949.168 94.44 948.268 95.36C947.388 96.28 946.948 97.49 946.948 98.99C946.948 100.49 947.388 101.7 948.268 102.62C949.168 103.54 950.308 104 951.688 104ZM967.394 93.32C968.474 91.64 970.374 90.8 973.094 90.8V94.37C972.774 94.31 972.484 94.28 972.224 94.28C970.764 94.28 969.624 94.71 968.804 95.57C967.984 96.41 967.574 97.63 967.574 99.23V107H963.824V90.98H967.394V93.32ZM989.663 107.21C988.363 107.21 987.093 107.04 985.853 106.7C984.613 106.36 983.623 105.93 982.883 105.41L984.323 102.56C985.043 103.04 985.903 103.43 986.903 103.73C987.923 104.01 988.923 104.15 989.903 104.15C992.143 104.15 993.263 103.56 993.263 102.38C993.263 101.82 992.973 101.43 992.393 101.21C991.833 100.99 990.923 100.78 989.663 100.58C988.343 100.38 987.263 100.15 986.423 99.89C985.603 99.63 984.883 99.18 984.263 98.54C983.663 97.88 983.363 96.97 983.363 95.81C983.363 94.29 983.993 93.08 985.253 92.18C986.533 91.26 988.253 90.8 990.413 90.8C991.513 90.8 992.613 90.93 993.713 91.19C994.813 91.43 995.713 91.76 996.413 92.18L994.973 95.03C993.613 94.23 992.083 93.83 990.383 93.83C989.283 93.83 988.443 94 987.863 94.34C987.303 94.66 987.023 95.09 987.023 95.63C987.023 96.23 987.323 96.66 987.923 96.92C988.543 97.16 989.493 97.39 990.773 97.61C992.053 97.81 993.103 98.04 993.923 98.3C994.743 98.56 995.443 99 996.023 99.62C996.623 100.24 996.923 101.12 996.923 102.26C996.923 103.76 996.273 104.96 994.973 105.86C993.673 106.76 991.903 107.21 989.663 107.21ZM1009.24 90.8C1011.26 90.8 1012.88 91.39 1014.1 92.57C1015.32 93.75 1015.93 95.5 1015.93 97.82V107H1012.18V98.3C1012.18 96.9 1011.85 95.85 1011.19 95.15C1010.53 94.43 1009.59 94.07 1008.37 94.07C1006.99 94.07 1005.9 94.49 1005.1 95.33C1004.3 96.15 1003.9 97.34 1003.9 98.9V107H1000.15V84.74H1003.9V92.84C1004.52 92.18 1005.28 91.68 1006.18 91.34C1007.1 90.98 1008.12 90.8 1009.24 90.8ZM1028.04 107.21C1026.42 107.21 1024.96 106.86 1023.66 106.16C1022.36 105.46 1021.34 104.49 1020.6 103.25C1019.88 101.99 1019.52 100.57 1019.52 98.99C1019.52 97.41 1019.88 96 1020.6 94.76C1021.34 93.52 1022.36 92.55 1023.66 91.85C1024.96 91.15 1026.42 90.8 1028.04 90.8C1029.68 90.8 1031.15 91.15 1032.45 91.85C1033.75 92.55 1034.76 93.52 1035.48 94.76C1036.22 96 1036.59 97.41 1036.59 98.99C1036.59 100.57 1036.22 101.99 1035.48 103.25C1034.76 104.49 1033.75 105.46 1032.45 106.16C1031.15 106.86 1029.68 107.21 1028.04 107.21ZM1028.04 104C1029.42 104 1030.56 103.54 1031.46 102.62C1032.36 101.7 1032.81 100.49 1032.81 98.99C1032.81 97.49 1032.36 96.28 1031.46 95.36C1030.56 94.44 1029.42 93.98 1028.04 93.98C1026.66 93.98 1025.52 94.44 1024.62 95.36C1023.74 96.28 1023.3 97.49 1023.3 98.99C1023.3 100.49 1023.74 101.7 1024.62 102.62C1025.52 103.54 1026.66 104 1028.04 104ZM1055.68 90.98V107H1052.11V104.96C1051.51 105.68 1050.76 106.24 1049.86 106.64C1048.96 107.02 1047.99 107.21 1046.95 107.21C1044.81 107.21 1043.12 106.62 1041.88 105.44C1040.66 104.24 1040.05 102.47 1040.05 100.13V90.98H1043.8V99.62C1043.8 101.06 1044.12 102.14 1044.76 102.86C1045.42 103.56 1046.35 103.91 1047.55 103.91C1048.89 103.91 1049.95 103.5 1050.73 102.68C1051.53 101.84 1051.93 100.64 1051.93 99.08V90.98H1055.68ZM1060.59 84.74H1064.34V107H1060.59V84.74ZM1084.95 84.74V107H1081.35V104.93C1080.73 105.69 1079.96 106.26 1079.04 106.64C1078.14 107.02 1077.14 107.21 1076.04 107.21C1074.5 107.21 1073.11 106.87 1071.87 106.19C1070.65 105.51 1069.69 104.55 1068.99 103.31C1068.29 102.05 1067.94 100.61 1067.94 98.99C1067.94 97.37 1068.29 95.94 1068.99 94.7C1069.69 93.46 1070.65 92.5 1071.87 91.82C1073.11 91.14 1074.5 90.8 1076.04 90.8C1077.1 90.8 1078.07 90.98 1078.95 91.34C1079.83 91.7 1080.58 92.24 1081.2 92.96V84.74H1084.95ZM1076.49 104C1077.39 104 1078.2 103.8 1078.92 103.4C1079.64 102.98 1080.21 102.39 1080.63 101.63C1081.05 100.87 1081.26 99.99 1081.26 98.99C1081.26 97.99 1081.05 97.11 1080.63 96.35C1080.21 95.59 1079.64 95.01 1078.92 94.61C1078.2 94.19 1077.39 93.98 1076.49 93.98C1075.59 93.98 1074.78 94.19 1074.06 94.61C1073.34 95.01 1072.77 95.59 1072.35 96.35C1071.93 97.11 1071.72 97.99 1071.72 98.99C1071.72 99.99 1071.93 100.87 1072.35 101.63C1072.77 102.39 1073.34 102.98 1074.06 103.4C1074.78 103.8 1075.59 104 1076.49 104ZM1098.15 90.98H1101.9V107H1098.15V90.98ZM1100.04 88.34C1099.36 88.34 1098.79 88.13 1098.33 87.71C1097.87 87.27 1097.64 86.73 1097.64 86.09C1097.64 85.45 1097.87 84.92 1098.33 84.5C1098.79 84.06 1099.36 83.84 1100.04 83.84C1100.72 83.84 1101.29 84.05 1101.75 84.47C1102.21 84.87 1102.44 85.38 1102.44 86C1102.44 86.66 1102.21 87.22 1101.75 87.68C1101.31 88.12 1100.74 88.34 1100.04 88.34ZM1123.99 90.8C1125.55 90.8 1126.94 91.14 1128.16 91.82C1129.4 92.5 1130.37 93.46 1131.07 94.7C1131.77 95.94 1132.12 97.37 1132.12 98.99C1132.12 100.61 1131.77 102.05 1131.07 103.31C1130.37 104.55 1129.4 105.51 1128.16 106.19C1126.94 106.87 1125.55 107.21 1123.99 107.21C1121.83 107.21 1120.12 106.49 1118.86 105.05V112.82H1115.11V90.98H1118.68V93.08C1119.3 92.32 1120.06 91.75 1120.96 91.37C1121.88 90.99 1122.89 90.8 1123.99 90.8ZM1123.57 104C1124.95 104 1126.08 103.54 1126.96 102.62C1127.86 101.7 1128.31 100.49 1128.31 98.99C1128.31 97.49 1127.86 96.28 1126.96 95.36C1126.08 94.44 1124.95 93.98 1123.57 93.98C1122.67 93.98 1121.86 94.19 1121.14 94.61C1120.42 95.01 1119.85 95.59 1119.43 96.35C1119.01 97.11 1118.8 97.99 1118.8 98.99C1118.8 99.99 1119.01 100.87 1119.43 101.63C1119.85 102.39 1120.42 102.98 1121.14 103.4C1121.86 103.8 1122.67 104 1123.57 104ZM1135.68 90.98H1139.43V107H1135.68V90.98ZM1137.57 88.34C1136.89 88.34 1136.32 88.13 1135.86 87.71C1135.4 87.27 1135.17 86.73 1135.17 86.09C1135.17 85.45 1135.4 84.92 1135.86 84.5C1136.32 84.06 1136.89 83.84 1137.57 83.84C1138.25 83.84 1138.82 84.05 1139.28 84.47C1139.74 84.87 1139.97 85.38 1139.97 86C1139.97 86.66 1139.74 87.22 1139.28 87.68C1138.84 88.12 1138.27 88.34 1137.57 88.34ZM1151.7 107.21C1150.04 107.21 1148.55 106.86 1147.23 106.16C1145.91 105.46 1144.88 104.49 1144.14 103.25C1143.4 101.99 1143.03 100.57 1143.03 98.99C1143.03 97.41 1143.4 96 1144.14 94.76C1144.88 93.52 1145.9 92.55 1147.2 91.85C1148.52 91.15 1150.02 90.8 1151.7 90.8C1153.28 90.8 1154.66 91.12 1155.84 91.76C1157.04 92.4 1157.94 93.32 1158.54 94.52L1155.66 96.2C1155.2 95.46 1154.62 94.91 1153.92 94.55C1153.24 94.17 1152.49 93.98 1151.67 93.98C1150.27 93.98 1149.11 94.44 1148.19 95.36C1147.27 96.26 1146.81 97.47 1146.81 98.99C1146.81 100.51 1147.26 101.73 1148.16 102.65C1149.08 103.55 1150.25 104 1151.67 104C1152.49 104 1153.24 103.82 1153.92 103.46C1154.62 103.08 1155.2 102.52 1155.66 101.78L1158.54 103.46C1157.92 104.66 1157.01 105.59 1155.81 106.25C1154.63 106.89 1153.26 107.21 1151.7 107.21ZM1168.18 100.13L1165.39 102.77V107H1161.64V84.74H1165.39V98.18L1173.16 90.98H1177.66L1170.97 97.7L1178.29 107H1173.73L1168.18 100.13Z" fill="black"/>
</g>
</g>
<defs>
<clipPath id="clip0">
<rect width="445" height="783" fill="white" transform="translate(346 67)"/>
</clipPath>
</defs>
</svg>
